<svg width="136" height="110" viewBox="0 0 136 110" xmlns="http://www.w3.org/2000/svg"><title>53564750-12B3-449F-8966-9BB429562C30</title><g fill="none" fill-rule="evenodd"><path fill-opacity=".01" fill="#D8D8D8" d="M0 0h136v110H0z"/><path d="M71.5 21c17.673 0 32 14.327 32 32 0 17.673-14.327 32-32 32-17.673 0-32-14.327-32-32 0-17.673 14.327-32 32-32zm-26 .5a5.5 5.5 0 1 1-11.001-.001A5.5 5.5 0 0 1 45.5 21.5zM57 88a3.5 3.5 0 1 1 0 7 3.5 3.5 0 0 1 0-7zm55-58a3.5 3.5 0 1 1 0 7 3.5 3.5 0 0 1 0-7z" fill="#FD804B"/><path d="M52.179 35.602c-9.608 10.672-8.747 27.112 1.924 36.72 10.67 9.608 27.11 8.746 36.719-1.925 9.608-10.67 8.747-27.11-1.924-36.718-10.671-9.608-27.112-8.747-36.72 1.924" fill="#73FEB8"/><path d="M90.078 69.728A25.046 25.046 0 0 1 71.492 78a24.955 24.955 0 0 1-16.72-6.422 25.047 25.047 0 0 1-8.27-18.586 24.95 24.95 0 0 1 6.42-16.72A25.046 25.046 0 0 1 71.508 28a24.952 24.952 0 0 1 16.72 6.421A25.048 25.048 0 0 1 96.5 53.007a24.95 24.95 0 0 1-6.42 16.721m-.513-36.793A26.947 26.947 0 0 0 71.508 26a27.05 27.05 0 0 0-20.073 8.933 26.952 26.952 0 0 0-6.934 18.06 27.05 27.05 0 0 0 8.932 20.071A26.948 26.948 0 0 0 71.493 80a27.046 27.046 0 0 0 20.071-8.933A26.948 26.948 0 0 0 98.5 53.007a27.048 27.048 0 0 0-8.933-20.072" fill="#35495E"/><path d="M71.5 37.571a1 1 0 0 0 1-1v-5.143a1 1 0 1 0-2 0v5.143a1 1 0 0 0 1 1M71.5 68.429a1 1 0 0 0-1 1v5.143a1 1 0 1 0 2 0v-5.143a1 1 0 0 0-1-1M93.5 51.5h-5a1 1 0 1 0 0 2h5a1 1 0 1 0 0-2M54.5 51.5h-5a1 1 0 1 0 0 2h5a1 1 0 1 0 0-2M72.642 52.501a1.518 1.518 0 0 1-.87.776c-.378.133-.785.11-1.145-.065a1.515 1.515 0 0 1-.681-2.026 1.53 1.53 0 0 1 1.37-.862 1.474 1.474 0 0 1 1.402 1.012c.13.384.104.797-.076 1.165zm-1.444-4.158a3.519 3.519 0 0 0-3.05 1.966c-.851 1.746-.132 3.854 1.602 4.7.083.04.172.057.258.092l6.265 12.474-3.04-12.826c.509-.343.93-.805 1.207-1.372a3.514 3.514 0 0 0 .173-2.684 3.502 3.502 0 0 0-.5-.93l7.149-18.357-10.064 16.937zM120 81h-4a1 1 0 1 0 0 2h4a1 1 0 1 0 0-2" fill="#35495E"/><path d="M71.5 84c-17.094 0-31-13.906-31-31a30.833 30.833 0 0 1 6.531-19H51a1 1 0 1 0 0-2h-2.278c5.669-6.144 13.78-10 22.778-10 14.328 0 26.411 9.772 29.948 23h-.948a1 1 0 1 0 0 2h1.412c.383 1.942.588 3.947.588 6 0 17.094-13.906 31-31 31m39.5-3H88.935c9.336-5.835 15.565-16.201 15.565-28 0-2.05-.197-4.053-.557-6h2.557a1 1 0 1 0 0-2h-2.985C99.929 30.657 86.938 20 71.5 20c-10.226 0-19.379 4.676-25.437 12H26a1 1 0 1 0 0 2h18.544A32.802 32.802 0 0 0 38.5 53c0 18.196 14.804 33 33 33 5.013 0 9.765-1.129 14.024-3.137A.98.98 0 0 0 86 83h25a1 1 0 1 0 0-2M21 32h-4a1 1 0 1 0 0 2h4a1 1 0 1 0 0-2M28.5 74H25a1 1 0 1 0 0 2h3.5a1 1 0 1 0 0-2" fill="#35495E"/><path d="M43.5 74h-10a1 1 0 1 0 0 2h10a1 1 0 1 0 0-2M112.5 45h-2a1 1 0 1 0 0 2h2a1 1 0 1 0 0-2" fill="#35495E"/></g></svg>