<svg width="136" height="110" viewBox="0 0 136 110" xmlns="http://www.w3.org/2000/svg"><title>AA566E74-A884-419E-898A-49D03E31CE4D</title><g fill="none" fill-rule="evenodd"><path fill-opacity=".01" fill="#D8D8D8" d="M0 0h136v110H0z"/><path d="M67.183 21.008A1.01 1.01 0 0 1 68.193 20h20.444a1.01 1.01 0 0 1 1.009 1.008v6.813a1.01 1.01 0 0 1-1.009 1.008H68.193a1.01 1.01 0 0 1-1.01-1.008v-6.813z" fill="#F2C970"/><path d="M61.056 86.485c0-.799.913-1.475 1.994-1.475h11.9c1.081 0 1.994.676 1.994 1.475v1.817H61.056v-1.817z" fill="#FD804B"/><path d="M77 94H57.508a1.001 1.001 0 0 1-1.008-.993v-.857c0-1.019.831-1.848 1.852-1.848H79.648c1.021 0 1.852.829 1.852 1.848v.857c0 .548-.452.993-1.008.993H77z" fill="#F2C970"/><path d="M89.016 30.945H68.272v2.52c0 .731-.207 1.443-.601 2.057a3.831 3.831 0 0 1-1.614 1.42c-.377.176-.932.505-1.603.95a6.33 6.33 0 0 0-2.226 2.575l-3.8 8.081a2.935 2.935 0 0 0 .427 3.156l1.298 1.514a4.998 4.998 0 0 1 1.155 3.924 2.011 2.011 0 0 0 1.995 2.278 4.02 4.02 0 0 0 1.057-.14v-9.908a.95.95 0 0 1 .953-.949.95.95 0 0 1 .952.95v30.202a2.435 2.435 0 0 0 2.441 2.432 2.44 2.44 0 0 0 2.44-2.432v-19.87a.95.95 0 0 1 .953-.95.95.95 0 0 1 .952.95v4.45a2.44 2.44 0 0 0 2.44 2.408 2.439 2.439 0 0 0 2.44-2.432V61.8a.951.951 0 0 1 1.905 0 2.44 2.44 0 0 0 2.442 2.431 2.439 2.439 0 0 0 2.44-2.43v-1.59a.951.951 0 0 1 1.904 0c0 1.11.877 2.027 1.955 2.044a1.974 1.974 0 0 0 1.435-.58 1.96 1.96 0 0 0 .582-1.398v-19.16c0-1.466-.21-2.922-.621-4.328a24.096 24.096 0 0 1-.957-5.843" fill="#73FEB8"/><path d="M97 72a5.5 5.5 0 1 1-.001 11.001A5.5 5.5 0 0 1 97 72zM34 44a3.5 3.5 0 1 1 0 7 3.5 3.5 0 0 1 0-7zm69-30a3.5 3.5 0 1 1 0 7 3.5 3.5 0 0 1 0-7zm8 80a1 1 0 1 1 0 2h-4a1 1 0 1 1 0-2h4zm-27.684 0H102a1 1 0 1 1 0 2H57.508a3.005 3.005 0 0 1-3.008-2.993v-.857a3.854 3.854 0 0 1 3.852-3.848h.704v-1.817c0-1.916 1.792-3.475 3.994-3.475h3.039c-.156-.118-.315-.233-.456-.373a4.297 4.297 0 0 1-1.273-3.063v-18.35a5.987 5.987 0 0 1-1.057.093c-2.16 0-3.918-1.749-3.918-3.899 0-.175.011-.355.036-.533a3.1 3.1 0 0 0-.717-2.434l-1.297-1.514a4.834 4.834 0 0 1-.704-5.196l3.801-8.079a8.212 8.212 0 0 1 2.895-3.351c.759-.503 1.381-.869 1.847-1.087.336-.158.618-.406.818-.719.199-.311.303-.671.303-1.04v-3.268a2.994 2.994 0 0 1-1.184-2.376v-6.813A3.01 3.01 0 0 1 68.193 18h20.444a3.01 3.01 0 0 1 3.009 3.008v6.813c0 .773-.3 1.47-.745 2.175 0 2.119.303 4.226.9 6.259.452 1.542.683 3.139.694 4.745H95.5a1 1 0 1 1 0 2h-3.001v17.275a3.848 3.848 0 0 1-1.141 2.743 3.86 3.86 0 0 1-2.811 1.134 3.833 3.833 0 0 1-2.229-.761 4.352 4.352 0 0 1-6.634 1.88 4.351 4.351 0 0 1-6.633 2.441l.001 11.862c0 1.405-.687 2.644-1.731 3.436h3.629c2.202 0 3.994 1.559 3.994 3.475v1.817h.704A3.854 3.854 0 0 1 83.5 92.15v.857c0 .349-.072.681-.184.993zM65.312 48.423a.951.951 0 0 0-.953.949v9.907a4.007 4.007 0 0 1-1.056.141 2.01 2.01 0 0 1-1.995-2.277 4.994 4.994 0 0 0-1.156-3.924l-1.298-1.515a2.935 2.935 0 0 1-.426-3.156l3.8-8.08a6.316 6.316 0 0 1 2.225-2.576c.672-.445 1.227-.774 1.604-.951a3.83 3.83 0 0 0 1.614-1.419 3.81 3.81 0 0 0 .6-2.057v-2.52h20.745c.078 1.979.398 3.94.957 5.843.401 1.369.606 2.785.617 4.212H89.5a1 1 0 1 0 0 2h1.094v17.276a1.96 1.96 0 0 1-.582 1.399 1.972 1.972 0 0 1-1.436.579c-1.077-.017-1.954-.934-1.954-2.044a.951.951 0 1 0-1.904 0v1.589a2.438 2.438 0 0 1-2.441 2.431 2.439 2.439 0 0 1-2.441-2.431.95.95 0 0 0-.952-.949.95.95 0 0 0-.952.949v2.332a2.439 2.439 0 0 1-2.441 2.432 2.439 2.439 0 0 1-2.44-2.408v-4.451a.951.951 0 0 0-.952-.949.95.95 0 0 0-.953.949v19.871a2.438 2.438 0 0 1-2.44 2.432 2.433 2.433 0 0 1-2.441-2.432V49.372a.951.951 0 0 0-.953-.949zM77 94H57.508a1.001 1.001 0 0 1-1.008-.993v-.857c0-1.019.831-1.848 1.852-1.848H79.648c1.021 0 1.852.829 1.852 1.848v.857c0 .548-.452.993-1.008.993H77zm-15.944-7.515c0-.799.913-1.475 1.994-1.475h11.9c1.081 0 1.994.676 1.994 1.475v1.817H61.056v-1.817zm6.127-65.477A1.01 1.01 0 0 1 68.193 20h20.444a1.01 1.01 0 0 1 1.009 1.008v6.813a1.01 1.01 0 0 1-1.009 1.008H68.193a1.01 1.01 0 0 1-1.01-1.008v-6.813zM30 31a1 1 0 1 1 0 2h-4a1 1 0 1 1 0-2h4zm30 2H35a1 1 0 1 1 0-2h25a1 1 0 1 1 0 2zm-.5 47a1 1 0 0 1-1 1h-16a1 1 0 1 1 0-2h16a1 1 0 0 1 1 1zm-22-1a1 1 0 1 1 0 2H36a1 1 0 1 1 0-2h1.5zm62-36a1 1 0 1 1 0-2h2a1 1 0 1 1 0 2h-2z" fill="#34495E"/><path d="M84.39 23.276a1.138 1.138 0 0 1 0 2.276 1.137 1.137 0 0 1 0-2.276m0 4.276a3.14 3.14 0 0 0 0-6.276 3.14 3.14 0 0 0-3.134 3.138 3.14 3.14 0 0 0 3.135 3.138" fill="#34495E"/></g></svg>