<svg width="136" height="110" viewBox="0 0 136 110" xmlns="http://www.w3.org/2000/svg"><title>9C4401B1-E416-4FEE-947C-B28D9B85299B</title><g fill="none" fill-rule="evenodd"><path fill-opacity=".01" fill="#D8D8D8" d="M0 0h136v110H0z"/><path d="M72.618 71l2.072-9.744a2.006 2.006 0 0 0-1.55-2.374l-2.07-.44-3.924-.834-8.138-1.729-6.879-1.462a2.004 2.004 0 0 0-2.377 1.54L46.553 71h-8.047a3.009 3.009 0 0 0-3.007 3.008v19.984A3.006 3.006 0 0 0 38.507 97h59.986a3.008 3.008 0 0 0 3.007-3.008V74.008A3.006 3.006 0 0 0 98.493 71H72.618z" fill="#65EC6D"/><path d="M47.46 19.608l-3.924.834-2.072.44a2.006 2.006 0 0 0-1.548 2.374l3.853 18.126a1.998 1.998 0 0 0 2.373 1.54l5.641-1.199 9.48 2.82-.982-4.626 6.879-1.462a2.005 2.005 0 0 0 1.547-2.373l-3.853-18.126a2.004 2.004 0 0 0-2.379-1.539l-6.879 1.462-8.136 1.73z" fill="#FD804B"/><path d="M103.14 35.883a2.005 2.005 0 0 1 1.55 2.373l-3.854 18.127a1.996 1.996 0 0 1-2.372 1.54l-5.643-1.2-9.48 2.819.984-4.625-6.88-1.462a2.004 2.004 0 0 1-1.546-2.373l3.853-18.126a2.004 2.004 0 0 1 2.378-1.54l6.88 1.463 8.135 1.73 3.924.834 2.071.44zM33 52a5.5 5.5 0 1 1 0 11 5.5 5.5 0 0 1 0-11zm47.5-33a3 3 0 1 1 0-6 3 3 0 0 1 0 6zm10 44a3 3 0 1 1 0 6 3 3 0 0 1 0-6z" fill="#84A7FD"/><path d="M15 96a1 1 0 1 1 0 2h-4a1 1 0 1 1 0-2h4zm112-11a1 1 0 1 1 0 2h-4a1 1 0 1 1 0-2h4zm-9 0a1 1 0 1 1 0 2h-15.5v6.992c0 .735-.213 1.415-.56 2.008H110a1 1 0 1 1 0 2H20a1 1 0 1 1 0-2h15.06a3.959 3.959 0 0 1-.56-2.008V74.008A4.012 4.012 0 0 1 38.507 70h7.237l3.029-14.252a3.012 3.012 0 0 1 3.564-2.31l21.011 4.466a3.01 3.01 0 0 1 2.319 3.561L73.853 70h24.64a4.012 4.012 0 0 1 4.007 4.008V85H118zm-17.5 0H93a1 1 0 1 0 0 2h7.5v6.992A2.01 2.01 0 0 1 98.493 96H38.507a2.01 2.01 0 0 1-2.007-2.008V74.008c0-1.108.9-2.008 2.007-2.008H98.493c1.107 0 2.007.9 2.007 2.008V85zM50.729 56.164a1.006 1.006 0 0 1 1.192-.768l21.011 4.465c.545.116.894.649.779 1.188L71.809 70h-24.02l2.94-13.836zm26.508-1.73l5.902 1.253-1.126 5.293 10.849-3.225 5.394 1.146a3.005 3.005 0 0 0 3.558-2.31L103.641 48h2.859a1 1 0 1 0 0-2h-2.434l1.602-7.535a3.01 3.01 0 0 0-2.32-3.561l-21.011-4.466a3.011 3.011 0 0 0-3.564 2.31l-3.852 18.126a2.975 2.975 0 0 0 .421 2.258 2.987 2.987 0 0 0 1.895 1.302m-.36-3.144l3.853-18.126a1.004 1.004 0 0 1 1.191-.769l21.011 4.466c.545.116.894.649.779 1.188L102.022 46H96.5a1 1 0 1 0 0 2h5.096l-1.738 8.175a.994.994 0 0 1-1.186.769l-5.892-1.252-8.111 2.411.842-3.957-7.858-1.669a1.003 1.003 0 0 1-.776-1.187zM41.673 21.861l21.01-4.466a1.004 1.004 0 0 1 1.193.77l3.852 18.125a1.004 1.004 0 0 1-.776 1.186l-7.858 1.67.842 3.957-8.111-2.41-5.891 1.251a.996.996 0 0 1-1.187-.77L43.222 34H54a1 1 0 0 0 0-2H42.797l-1.903-8.952a1.004 1.004 0 0 1 .779-1.187zM29 34.001a1 1 0 0 1 0-2h11.752l-1.814-8.536a3.009 3.009 0 0 1 2.319-3.56l21.01-4.467a3.011 3.011 0 0 1 3.565 2.31l3.852 18.126a2.975 2.975 0 0 1-.421 2.258 2.99 2.99 0 0 1-1.895 1.301l-5.902 1.254 1.126 5.293-10.85-3.225-5.392 1.146a3.006 3.006 0 0 1-3.56-2.31L41.178 34H29zM111.5 48a1 1 0 1 1 0-2h3.5a1 1 0 1 1 0 2h-3.5zM20 34a1 1 0 1 1 0-2h4a1 1 0 1 1 0 2h-4zm48 49a1.5 1.5 0 1 1 0-3 1.5 1.5 0 0 1 0 3zm18.219-3a1 1 0 1 1 0 2H76.49v3.002A3.006 3.006 0 0 1 73.484 88H63.06a3.007 3.007 0 0 1-3.008-2.998V82H46.5a1 1 0 1 1 0-2h15.552v5.002c0 .551.452.998 1.008.998h10.424c.555 0 1.007-.447 1.007-.998V80h11.728zm5.281 0a1 1 0 1 1 0 2h-1.281a1 1 0 1 1 0-2H91.5zm-4.725-41.525a1 1 0 1 1 .45-1.95l13 3a1 1 0 1 1-.45 1.95l-13-3zM55.77 24.376c.07 0 .142-.007.213-.022l1.728-.376a1.001 1.001 0 0 0-.424-1.956l-1.728.376a1.001 1.001 0 0 0 .211 1.978M45.999 26.5a1 1 0 0 1-.211-1.978l6.84-1.487a1 1 0 1 1 .425 1.955l-6.841 1.488a1.034 1.034 0 0 1-.213.022zm18.732 35.527a.999.999 0 1 1-.463 1.945l-10.5-2.5a1 1 0 0 1 .463-1.945l10.5 2.5z" fill="#34495E"/></g></svg>