<svg width="210" height="75" viewBox="0 0 210 75" xmlns="http://www.w3.org/2000/svg"><title>1EAAC3F0-3054-4E64-899E-E2D9297CF8C2</title><path d="M69.457 51.68h-3.513V30.003h3.513v9.778l3.227-.253 4.43-9.525h4.02L75.786 40.89l5.569 10.791h-4.082l-4.589-9.05-3.227.221v8.829zM93.57 35.858h3.418V51.68H93.57v-.981c-1.54.886-2.964 1.33-4.272 1.33-2.173 0-3.629-.586-4.367-1.757-.738-1.171-1.108-3.223-1.108-6.155v-8.26h3.45v8.291c0 1.9.158 3.176.474 3.83.317.654 1.055.98 2.215.98 1.14 0 2.184-.21 3.133-.632l.475-.19V35.858zm20.506-6.583V51.68h-3.418v-.823c-1.54.78-2.953 1.171-4.24 1.171-2.068 0-3.581-.622-4.541-1.867-.96-1.245-1.44-3.333-1.44-6.266 0-2.932.533-5.063 1.598-6.392 1.065-1.329 2.727-1.994 4.984-1.994.76 0 1.962.138 3.608.412v-6.646h3.449zm-3.987 19.114l.538-.222V38.8a21.468 21.468 0 0 0-3.513-.316c-2.13 0-3.196 1.772-3.196 5.316 0 1.941.248 3.286.744 4.035.495.75 1.281 1.124 2.357 1.124 1.076 0 2.1-.19 3.07-.57zm14.461-12.88c2.532 0 4.341.686 5.427 2.057 1.087 1.372 1.63 3.429 1.63 6.171 0 2.743-.527 4.81-1.582 6.203-1.055 1.392-2.88 2.088-5.475 2.088-2.595 0-4.42-.696-5.474-2.088-1.055-1.393-1.582-3.46-1.582-6.203 0-2.742.543-4.8 1.63-6.17 1.086-1.372 2.895-2.058 5.426-2.058zm0 13.608c1.414 0 2.363-.422 2.848-1.266.486-.844.728-2.226.728-4.146s-.258-3.28-.775-4.082c-.517-.801-1.45-1.202-2.8-1.202-1.35 0-2.284.4-2.801 1.202-.517.802-.775 2.163-.775 4.082 0 1.92.242 3.302.727 4.146.486.844 1.435 1.266 2.848 1.266zm17.848-13.608c2.173 0 3.74.607 4.7 1.82s1.44 3.36 1.44 6.44c0 3.08-.57 5.226-1.71 6.44-1.139 1.213-3.143 1.82-6.012 1.82-.992 0-2.563-.096-4.715-.286l-1.076-.095V29.275h3.418v7.184c1.455-.633 2.774-.95 3.955-.95zm-1.582 13.45c1.688 0 2.811-.396 3.37-1.187.56-.791.839-2.136.839-4.035s-.238-3.233-.712-4.003c-.475-.77-1.25-1.155-2.326-1.155-1.013 0-2.026.158-3.038.475l-.506.158v9.62c1.16.084 1.951.127 2.373.127zm20.759-13.101h3.418V51.68h-3.418v-.981c-1.54.886-2.964 1.33-4.272 1.33-2.173 0-3.629-.586-4.367-1.757-.738-1.171-1.108-3.223-1.108-6.155v-8.26h3.45v8.291c0 1.9.158 3.176.474 3.83.317.654 1.055.98 2.215.98 1.14 0 2.184-.21 3.133-.632l.475-.19V35.858zm6.804 3.07v-3.07h11.74v3.07l-7.595 9.682h7.595v3.07h-11.74v-3.07l7.626-9.683h-7.626zm14.366 0v-3.07h11.74v3.07l-7.594 9.682h7.595v3.07h-11.74v-3.07l7.626-9.683h-7.627zm-144.637 12.7l-7.284 2.942a2.104 2.104 0 0 1-2.743-1.16l-8.706-21.547a2.106 2.106 0 0 1 1.17-2.74l22.996-9.291a2.105 2.105 0 0 1 2.745 1.159l8.705 21.547a2.105 2.105 0 0 1-1.167 2.74L46.54 48.22l-3.282 4.015-5.15-.608zm6.524 4.008l3.88-4.746 6.516-2.633c2.732-1.103 4.054-4.204 2.954-6.927l-8.706-21.547c-1.1-2.724-4.206-4.035-6.939-2.931L19.34 26.143c-2.732 1.104-4.055 4.206-2.955 6.928l8.706 21.548c1.1 2.723 4.205 4.035 6.937 2.931l6.516-2.632 6.088.718zm-7.84-16.797l-1.535.62 2.543 6.293-2.962 1.196-6.095-15.084 2.962-1.197 2.49 6.163 1.535-.62.97-7.56 3.372-1.363-1.316 9.004 7.951 5.862-3.654 1.476-6.26-4.79z" fill="#E67E22" fill-rule="evenodd"/></svg>