<svg width="179" height="42" viewBox="0 0 179 42" xmlns="http://www.w3.org/2000/svg"><title>E121C4BF-040D-4352-AD74-AC1717CB095B</title><path d="M53.459 35.22h-3.513V13.543h3.513v9.778l3.227-.253 4.43-9.525h4.02l-5.348 10.886 5.57 10.79h-4.083l-4.589-9.05-3.227.222v8.829zm24.113-15.823h3.418V35.22h-3.418v-.981c-1.54.886-2.964 1.329-4.272 1.329-2.173 0-3.629-.586-4.367-1.757-.738-1.17-1.107-3.222-1.107-6.155v-8.259h3.449v8.291c0 1.899.158 3.175.474 3.83.317.653 1.055.98 2.216.98 1.139 0 2.183-.21 3.132-.633l.475-.19V19.397zm20.506-6.582V35.22H94.66v-.823c-1.54.78-2.953 1.17-4.24 1.17-2.067 0-3.581-.622-4.541-1.866-.96-1.245-1.44-3.334-1.44-6.266 0-2.933.533-5.063 1.598-6.392 1.066-1.33 2.727-1.994 4.984-1.994.76 0 1.962.137 3.608.411v-6.645h3.45zm-3.987 19.113l.538-.221V22.34a21.468 21.468 0 0 0-3.513-.316c-2.13 0-3.196 1.772-3.196 5.316 0 1.94.248 3.286.744 4.035.495.749 1.281 1.123 2.357 1.123 1.076 0 2.1-.19 3.07-.57zm14.462-12.879c2.531 0 4.34.686 5.427 2.057 1.086 1.371 1.63 3.428 1.63 6.17 0 2.743-.528 4.81-1.583 6.203-1.055 1.392-2.88 2.089-5.474 2.089-2.595 0-4.42-.697-5.475-2.089-1.055-1.392-1.582-3.46-1.582-6.202 0-2.743.543-4.8 1.63-6.171 1.086-1.371 2.895-2.057 5.427-2.057zm0 13.607c1.413 0 2.362-.422 2.848-1.265.485-.844.727-2.226.727-4.146s-.258-3.28-.775-4.082-1.45-1.203-2.8-1.203c-1.35 0-2.284.401-2.801 1.203-.517.802-.775 2.162-.775 4.082s.242 3.302.728 4.146c.485.843 1.434 1.265 2.848 1.265zM126.4 19.05c2.173 0 3.74.607 4.7 1.82s1.44 3.36 1.44 6.44c0 3.08-.57 5.226-1.71 6.44-1.139 1.212-3.143 1.819-6.012 1.819-.992 0-2.563-.095-4.715-.285l-1.076-.095V12.815h3.418v7.183c1.455-.633 2.774-.949 3.955-.949zm-1.582 13.45c1.688 0 2.811-.396 3.37-1.188.56-.79.839-2.136.839-4.034 0-1.899-.238-3.233-.712-4.003-.475-.77-1.25-1.155-2.326-1.155-1.013 0-2.025.158-3.038.474l-.506.158v9.62c1.16.085 1.951.127 2.373.127zm20.76-13.102h3.417V35.22h-3.418v-.981c-1.54.886-2.964 1.329-4.272 1.329-2.173 0-3.629-.586-4.367-1.757-.738-1.17-1.108-3.222-1.108-6.155v-8.259h3.45v8.291c0 1.899.158 3.175.474 3.83.317.653 1.055.98 2.216.98 1.139 0 2.183-.21 3.132-.633l.475-.19V19.397zm6.803 3.07v-3.07h11.74v3.07l-7.595 9.683h7.595v3.07h-11.74v-3.07l7.626-9.683h-7.626zm14.367 0v-3.07h11.74v3.07l-7.595 9.683h7.595v3.07h-11.74v-3.07l7.626-9.683h-7.626zM22.11 35.167l-7.284 2.943a2.104 2.104 0 0 1-2.743-1.16L3.377 15.403a2.106 2.106 0 0 1 1.17-2.74l22.997-9.291a2.105 2.105 0 0 1 2.744 1.158l8.706 21.548a2.105 2.105 0 0 1-1.168 2.739l-7.284 2.943-3.282 4.014-5.15-.607zm6.524 4.009l3.88-4.746 6.516-2.633c2.732-1.104 4.054-4.205 2.954-6.927L33.278 3.322C32.178.6 29.072-.713 26.339.392L3.343 9.681C.61 10.788-.713 13.889.387 16.612l8.706 21.547c1.1 2.724 4.205 4.036 6.937 2.932l6.516-2.633 6.088.719zm-7.84-16.797l-1.535.62 2.543 6.292-2.962 1.197-6.095-15.084 2.962-1.197 2.49 6.163 1.535-.62.97-7.56 3.372-1.364-1.316 9.005 7.951 5.861-3.654 1.477-6.26-4.79z" fill="#FFF" fill-rule="evenodd"/></svg>